<?xml version="1.0" encoding="iso-8859-1"?>
<!DOCTYPE svg PUBLIC "-//W3C//DTD SVG 1.1//EN" "http://www.w3.org/Graphics/SVG/1.1/DTD/svg11.dtd">
<svg 
 version="1.1" xmlns="http://www.w3.org/2000/svg" xmlns:xlink="http://www.w3.org/1999/xlink" x="0px" y="0px" width="512px"
	 height="512px" viewBox="0 0 512 512" style="enable-background:new 0 0 512 512;" xml:space="preserve"
><g id="afcae5a789ccd549f9c6e2a2f80f176b"><g></g><g fill="#717171"><path style="display: inline;" d="M341.167,256c0,47.036-38.131,85.167-85.167,85.167c-47.037,0-85.167-38.131-85.167-85.167
		c0-47.038,38.129-85.167,85.167-85.167C303.036,170.833,341.167,208.962,341.167,256z M128.25,256
		c0-41.543,19.84-78.442,50.551-101.776l-21.367-37.01C114.044,148.119,85.667,198.791,85.667,256
		c0,57.208,28.378,107.88,71.768,138.786l21.367-37.01C148.09,334.442,128.25,297.544,128.25,256z M426.333,256
		c0-57.209-28.377-107.881-71.768-138.786l-21.366,37.01C363.91,177.558,383.75,214.457,383.75,256
		c0,41.544-19.84,78.442-50.551,101.776l21.366,37.01C397.956,363.88,426.333,313.208,426.333,256z M43.083,256
		c0-73.086,36.828-137.547,92.93-175.889l-21.287-36.865C45.936,89.077,0.5,167.32,0.5,256c0,88.681,45.436,166.923,114.227,212.754
		l21.287-36.864C79.912,393.547,43.083,329.086,43.083,256z M397.273,43.246l-21.288,36.865
		c56.104,38.342,92.932,102.803,92.932,175.889s-36.828,137.547-92.932,175.89l21.288,36.864
		C466.063,422.923,511.5,344.681,511.5,256C511.5,167.32,466.063,89.077,397.273,43.246z"></path></g></g></svg>