<svg width="24" height="25" xmlns="http://www.w3.org/2000/svg" xmlns:xlink="http://www.w3.org/1999/xlink"><defs><rect id="b" x="0" y="0" width="24" height="24" rx="3"/><filter x="-2.1%" y="-2.1%" width="104.2%" height="108.3%" filterUnits="objectBoundingBox" id="a"><feOffset dy="1" in="SourceAlpha" result="shadowOffsetOuter1"/><feComposite in="shadowOffsetOuter1" in2="SourceAlpha" operator="out" result="shadowOffsetOuter1"/><feColorMatrix values="0 0 0 0 0 0 0 0 0 0 0 0 0 0 0 0 0 0 0.164472247 0" in="shadowOffsetOuter1"/></filter><path d="M9.962 16.994v-3.93h1.176c1.285 0 2.273-.273 2.963-.817.69-.545 1.036-1.323 1.036-2.335C15.137 7.971 13.888 7 11.39 7H8.8v9.994h1.162zm1.046-4.929H9.962v-4.06h1.299c.916 0 1.59.162 2.023.485.433.324.65.816.65 1.477 0 .734-.23 1.267-.69 1.6-.46.332-1.206.498-2.236.498z" id="c"/></defs><g fill="none" fill-rule="evenodd"><use fill="#000" filter="url(#a)" xlink:href="#b"/><rect stroke="#9DA7B3" stroke-width=".5" stroke-linejoin="square" fill="#FFF" x=".25" y=".25" width="23.5" height="23.5" rx="3"/><g fill-rule="nonzero"><use fill="#000" xlink:href="#c"/><use fill="#5A6068" xlink:href="#c"/></g></g></svg>