<?xml version="1.0" encoding="iso-8859-1"?>
<!DOCTYPE svg PUBLIC "-//W3C//DTD SVG 1.1//EN" "http://www.w3.org/Graphics/SVG/1.1/DTD/svg11.dtd">
<svg 
 version="1.1" xmlns="http://www.w3.org/2000/svg" xmlns:xlink="http://www.w3.org/1999/xlink" x="0px" y="0px" width="512px"
	 height="512px" viewBox="0 0 512 512" style="enable-background:new 0 0 512 512;" xml:space="preserve"
><g id="afcae5a789ccd549f9c6e2a2f812b4aa"><g></g><path style="display: inline;" d="M475,329V37c0-20.075-16.425-36.5-36.5-36.5h-365C53.425,0.5,37,16.925,37,37v292
		c0,20.075,16.425,36.5,36.5,36.5H110l-73,146h438l-75.908-146H438.5C458.575,365.5,475,349.075,475,329z M124.6,37h262.8
		c8.063,0,14.6,8.17,14.6,18.25s-6.537,18.25-14.6,18.25H124.6c-8.066,0-14.6-8.17-14.6-18.25S116.534,37,124.6,37z M91.75,319.875
		c0-15.12,12.254-27.375,27.375-27.375s27.375,12.255,27.375,27.375s-12.254,27.375-27.375,27.375S91.75,334.995,91.75,319.875z
		 M420.25,475H91.75l23.468-46.923h281.563L420.25,475z M383.75,402h-255.5l18.25-36.5h219L383.75,402z M392.875,347.25
		c-15.12,0-27.375-12.255-27.375-27.375s12.255-27.375,27.375-27.375s27.375,12.255,27.375,27.375S407.995,347.25,392.875,347.25z
		 M420.25,274.25H91.75c-10.08,0-18.25-8.17-18.25-18.25V128.25c0-10.08,8.17-18.25,18.25-18.25h328.5
		c10.08,0,18.25,8.17,18.25,18.25V256C438.5,266.08,430.33,274.25,420.25,274.25z"></path></g></svg>